<?xml version="1.0" standalone="no"?>
<!DOCTYPE svg PUBLIC "-//W3C//DTD SVG 20010904//EN"
 "http://www.w3.org/TR/2001/REC-SVG-20010904/DTD/svg10.dtd">
<svg version="1.0" xmlns="http://www.w3.org/2000/svg"
 width="1024.000000pt" height="1024.000000pt" viewBox="0 0 1024.000000 1024.000000"
 preserveAspectRatio="xMidYMid meet">

<g transform="translate(0.000000,1024.000000) scale(0.100000,-0.100000)"
fill="#000000" stroke="none">
<path d="M5955 2740 l-30 -8 35 -2 c32 -2 33 -3 10 -9 -15 -5 -35 -3 -52 6
-31 15 -50 17 -28 3 11 -7 11 -10 2 -10 -7 0 -11 -4 -7 -9 3 -6 -6 -6 -25 -1
-19 5 -28 5 -25 -1 4 -5 -8 -9 -25 -9 -45 0 -70 -16 -70 -46 0 -14 -3 -23 -7
-21 -5 3 -8 -33 -7 -79 0 -46 -3 -84 -8 -84 -4 0 -8 -29 -8 -65 0 -37 4 -65
10 -65 13 0 13 -37 0 -45 -7 -4 -6 -13 1 -27 8 -16 8 -19 -1 -13 -9 6 -9 3 -1
-13 8 -15 8 -22 -2 -25 -9 -4 -9 -6 1 -6 6 -1 12 -6 12 -12 0 -5 -4 -8 -10 -4
-5 3 -3 -7 5 -21 8 -15 12 -31 9 -36 -6 -10 57 -49 68 -42 4 3 8 1 8 -4 0 -6
14 -15 30 -21 18 -6 28 -6 25 -1 -11 17 5 32 20 20 7 -6 25 -8 39 -4 17 4 26
2 26 -5 0 -8 6 -9 18 -3 9 5 37 7 60 5 33 -3 42 -1 36 8 -5 8 0 10 19 7 15 -3
24 -1 21 3 -3 5 0 9 5 9 6 0 11 -7 11 -16 0 -9 5 -14 11 -12 6 2 10 8 9 13 -2
10 39 29 55 26 6 -1 3 4 -6 11 -19 16 -6 32 28 35 20 2 26 -17 10 -33 -12 -12
47 -36 90 -37 27 0 44 -6 47 -14 3 -8 10 -11 16 -8 6 4 8 11 5 16 -4 5 4 5 19
-1 26 -10 128 -7 201 5 30 5 36 4 25 -4 -21 -15 -8 -14 31 4 19 8 27 15 19 15
-13 1 -13 2 1 13 9 7 14 17 12 24 -5 13 2 18 40 27 24 6 27 5 15 -7 -7 -8 -19
-12 -25 -10 -7 3 -13 0 -13 -7 0 -6 8 -10 18 -9 9 1 33 1 52 0 27 -1 31 -4 20
-11 -12 -8 -12 -10 5 -11 l20 0 -20 -10 c-19 -9 -19 -9 2 -5 32 6 104 -14 96
-27 -4 -6 -1 -7 8 -1 20 12 132 5 141 -9 5 -8 8 -7 8 4 0 9 7 20 16 23 22 8
26 8 19 -4 -10 -17 4 -11 24 9 11 11 17 22 15 25 -2 3 -1 4 3 1 3 -3 15 3 26
12 15 13 18 14 12 3 -7 -13 31 13 45 31 3 4 24 10 48 14 32 5 42 4 42 -7 0
-10 3 -9 10 2 6 10 10 11 10 3 0 -7 9 -13 21 -13 11 0 17 -4 14 -10 -3 -6 4
-10 16 -10 12 0 20 -3 16 -6 -9 -9 18 -34 36 -34 9 0 18 -6 20 -12 4 -10 8
-10 15 1 8 11 10 11 14 0 3 -9 30 -13 90 -15 48 -1 92 -5 99 -9 7 -5 10 -4 5
3 -4 6 14 17 44 27 27 9 50 21 50 26 0 5 6 9 13 9 6 0 25 16 40 35 16 20 33
32 39 29 7 -4 8 -2 4 4 -4 7 -1 12 8 12 9 0 16 5 16 11 0 5 -4 7 -10 4 -5 -3
-10 1 -10 9 0 9 8 16 19 16 11 0 23 5 27 12 5 8 2 9 -9 5 -25 -10 -20 8 6 21
12 6 16 11 9 11 -7 1 -10 5 -7 11 4 6 -1 7 -12 3 -16 -6 -16 -5 -4 10 7 9 11
17 8 17 -3 0 -2 14 3 30 7 25 5 32 -11 40 -10 6 -19 18 -19 28 0 15 2 15 10 2
16 -24 11 -5 -6 26 -12 22 -15 24 -11 7 4 -16 0 -21 -13 -20 -15 1 -17 5 -8
20 7 14 7 17 -1 13 -15 -10 -14 7 1 22 10 10 10 15 -2 22 -8 6 -10 10 -3 10 6
0 9 9 6 20 -3 11 -10 20 -15 20 -5 0 -6 5 -2 12 4 7 3 8 -5 4 -6 -4 -14 1 -19
13 -4 11 -10 19 -13 18 -10 -3 -38 30 -31 37 3 4 -2 4 -12 0 -14 -5 -17 -4
-12 5 4 6 4 11 -1 10 -22 -4 -33 3 -33 19 0 13 -2 14 -9 4 -10 -16 -54 -7 -72
14 -6 8 -27 13 -48 13 -36 -1 -36 -1 -6 -8 27 -6 25 -7 -27 -17 -32 -6 -58 -7
-58 -2 0 4 -9 -1 -21 -13 -13 -13 -30 -19 -47 -17 -16 1 -26 -2 -25 -8 1 -6
-14 -26 -33 -45 -29 -28 -38 -32 -53 -22 -11 7 -23 8 -32 2 -19 -12 -32 -11
-23 2 4 7 -2 9 -17 7 -19 -2 -23 1 -21 16 2 12 -1 16 -9 10 -8 -5 -11 -2 -6 8
4 13 -2 16 -30 16 -20 0 -38 4 -42 10 -8 12 -53 28 -88 31 -14 1 -15 3 -5 10
10 6 8 10 -10 14 -34 10 -45 8 -28 -4 11 -8 6 -9 -22 -7 -21 2 -35 2 -32 -1 8
-8 -97 -32 -109 -24 -7 3 -9 3 -5 -2 4 -4 0 -14 -10 -21 -25 -19 -37 -17 -21
4 13 15 12 16 -3 4 -10 -8 -17 -17 -16 -20 1 -4 -19 -29 -45 -56 -25 -27 -44
-53 -41 -58 3 -4 1 -8 -5 -8 -6 0 -7 -7 -4 -17 4 -10 2 -14 -4 -10 -13 8 -36
-50 -26 -67 4 -6 -2 -4 -13 4 -18 14 -18 14 -2 -6 14 -16 15 -23 6 -32 -9 -9
-9 -12 1 -12 9 0 12 -9 9 -25 -3 -14 -1 -25 3 -25 5 0 9 -8 9 -17 0 -14 -2
-15 -9 -4 -7 11 -10 11 -17 0 -4 -7 -3 -14 4 -17 8 -2 8 -7 -1 -17 -8 -9 -17
-10 -30 -3 -10 5 -26 7 -35 5 -12 -3 -10 -5 6 -6 13 0 21 -5 18 -10 -3 -4 -17
-6 -31 -4 -13 3 -23 9 -20 13 3 4 -8 10 -23 13 -15 3 -30 0 -34 -6 -4 -7 -8
-10 -9 -7 -6 34 -10 59 -12 78 -2 23 -12 29 -22 12 -3 -5 -12 -10 -18 -10 -8
0 -7 3 2 9 11 7 11 9 0 14 -8 3 -1 6 14 6 24 1 26 4 18 19 -5 10 -9 34 -8 53
2 31 0 34 -23 31 l-25 -4 27 21 c15 12 26 30 25 41 -1 22 -12 16 -12 -7 0 -9
-7 -17 -16 -18 -9 -2 -16 3 -16 11 0 7 4 11 8 9 3 -3 9 3 12 14 2 10 -3 22
-13 29 -10 6 -17 24 -18 42 0 18 -4 36 -9 41 -16 16 -94 27 -125 18 -17 -4
-35 -6 -40 -2 -6 3 -7 -3 -3 -16 4 -12 2 -21 -4 -21 -6 0 -11 5 -11 10 0 6 -8
10 -17 10 -15 0 -16 -2 -3 -10 12 -8 12 -10 -5 -10 -17 0 -18 -2 -5 -11 12 -9
12 -10 -3 -5 -10 3 -21 6 -23 6 -3 0 -2 5 1 10 3 6 -1 10 -10 10 -9 0 -29 8
-43 19 -20 13 -41 18 -77 16 -27 -2 -40 -1 -28 2 15 3 20 9 16 19 -5 13 -7 13
-14 2 -7 -10 -9 -9 -9 5 0 18 0 18 -45 7z m1127 -80 c105 -39 181 -148 181
-260 1 -111 -57 -205 -155 -254 -42 -21 -66 -26 -128 -26 -62 0 -86 5 -128 26
-98 49 -157 144 -156 254 1 197 199 330 386 260z m605 5 c33 -10 69 -31 100
-59 47 -43 48 -44 30 -64 -10 -11 -32 -26 -48 -32 -26 -11 -32 -10 -64 18 -86
76 -204 53 -254 -51 -26 -53 -26 -99 -2 -152 49 -108 174 -138 256 -61 58 55
50 65 -57 68 l-93 3 -3 33 c-6 58 5 62 162 62 152 0 166 -4 166 -50 0 -91 -64
-190 -152 -234 -71 -36 -180 -37 -253 -2 -104 48 -174 170 -162 279 22 184
195 295 374 242z m-1575 -18 c67 -46 77 -157 19 -209 l-32 -28 26 -12 c89 -40
83 -208 -9 -252 -29 -14 -62 -16 -193 -14 l-158 3 -3 255 c-1 140 0 261 3 268
4 11 37 13 163 10 131 -2 161 -6 184 -21z m278 -202 l5 -220 138 -3 137 -3 0
-44 0 -45 -197 2 -198 3 -3 255 c-1 140 0 261 3 268 3 9 21 12 57 10 l53 -3 5
-220z m-152 185 c-13 -21 -38 -27 -38 -10 0 6 7 10 15 10 8 0 15 5 15 10 0 6
5 10 10 10 6 0 5 -8 -2 -20z m1029 -46 c-3 -3 -12 -4 -19 -1 -8 3 -5 6 6 6 11
1 17 -2 13 -5z m70 0 c-3 -3 -12 -4 -19 -1 -8 3 -5 6 6 6 11 1 17 -2 13 -5z
m208 -124 c3 -6 -1 -7 -9 -4 -18 7 -21 14 -7 14 6 0 13 -4 16 -10z m-1101 -26
c9 -22 8 -24 -9 -18 -8 4 -15 12 -15 20 0 19 16 18 24 -2z m93 -159 c0 -17 0
-17 -22 -9 -13 5 -14 8 -3 15 19 12 25 11 25 -6z m734 -70 c0 -6 -11 -11 -23
-12 -21 -1 -21 -1 1 4 19 4 21 7 10 15 -10 7 -11 9 -1 6 8 -2 13 -8 13 -13z
m-556 -15 c3 -5 1 -10 -4 -10 -6 0 -11 5 -11 10 0 6 2 10 4 10 3 0 8 -4 11
-10z"/>
<path d="M6934 2569 c-64 -19 -124 -105 -124 -179 1 -60 56 -138 113 -159 92
-35 202 31 221 134 15 76 -33 162 -109 196 -44 20 -56 21 -101 8z m64 -95 c14
-15 17 -15 27 0 7 9 15 13 18 9 11 -10 8 -18 -13 -41 -18 -19 -15 -33 4 -15 3
4 14 8 24 10 14 2 17 -5 17 -37 0 -21 -2 -37 -5 -35 -3 1 -16 -2 -30 -7 -18
-7 -21 -11 -11 -17 9 -6 6 -9 -10 -9 -13 0 -28 -1 -34 -2 -20 -5 -36 0 -31 9
4 5 -3 7 -14 4 -11 -3 -18 -9 -15 -13 3 -5 -4 -6 -15 -3 -11 3 -20 9 -20 14 0
5 7 6 15 3 8 -4 15 -1 15 6 0 6 3 9 8 7 4 -3 5 15 3 39 -2 34 0 44 12 44 9 0
19 4 22 10 4 6 -2 7 -18 1 -14 -6 -29 -6 -38 0 -10 6 -11 9 -1 10 6 1 17 3 22
4 6 1 16 3 23 4 8 1 7 4 -3 11 -12 8 -10 10 8 10 13 0 31 -7 40 -16z m-78 -58
c0 -2 -11 -6 -25 -8 -13 -3 -22 -1 -19 3 5 9 44 13 44 5z m0 -38 c0 -6 -6 -5
-15 2 -8 7 -15 14 -15 16 0 2 7 1 15 -2 8 -4 15 -11 15 -16z m32 -65 c-6 -2
-9 -10 -6 -15 4 -7 2 -8 -5 -4 -13 9 -5 26 12 25 9 0 8 -2 -1 -6z"/>
<path d="M7033 2413 c-15 -6 -17 -33 -3 -33 6 0 10 6 10 14 0 8 6 17 13 19 6
3 8 5 2 5 -5 0 -16 -2 -22 -5z"/>
<path d="M5882 2513 l3 -58 62 -3 c52 -2 66 1 83 18 24 24 26 62 4 84 -11 12
-35 16 -85 16 l-70 0 3 -57z"/>
<path d="M5882 2288 l3 -63 71 0 c82 0 114 18 114 66 0 47 -22 59 -111 59
l-80 0 3 -62z"/>
<path d="M7660 2726 c0 -2 7 -7 16 -10 8 -3 12 -2 9 4 -6 10 -25 14 -25 6z"/>
<path d="M7100 2716 c0 -2 7 -7 16 -10 8 -3 12 -2 9 4 -6 10 -25 14 -25 6z"/>
<path d="M7278 2633 c6 -2 18 -2 25 0 6 3 1 5 -13 5 -14 0 -19 -2 -12 -5z"/>
<path d="M7330 2620 c-9 -6 -10 -10 -3 -10 6 0 15 5 18 10 8 12 4 12 -15 0z"/>
<path d="M6535 2340 c-3 -6 1 -7 9 -4 18 7 21 14 7 14 -6 0 -13 -4 -16 -10z"/>
<path d="M6268 2083 c7 -3 16 -2 19 1 4 3 -2 6 -13 5 -11 0 -14 -3 -6 -6z"/>
</g>
</svg>
