<?xml version="1.0" standalone="no"?>
<!DOCTYPE svg PUBLIC "-//W3C//DTD SVG 20010904//EN"
 "http://www.w3.org/TR/2001/REC-SVG-20010904/DTD/svg10.dtd">
<svg version="1.0" xmlns="http://www.w3.org/2000/svg"
 width="182.000000pt" height="200.000000pt" viewBox="0 0 182.000000 200.000000"
 preserveAspectRatio="xMidYMid meet">

<g transform="translate(0.000000,200.000000) scale(0.100000,-0.100000)"
fill="#000000" stroke="none">
<path d="M840 1959 c-154 -110 -188 -154 -206 -267 -9 -61 -26 -65 -18 -5 l6
50 -43 9 c-40 8 -46 14 -69 61 -14 29 -28 52 -32 53 -4 0 -10 -17 -14 -37 -13
-74 -16 -76 -87 -46 -34 14 -78 41 -97 60 -20 18 -39 33 -43 33 -4 0 -7 -40
-7 -89 0 -75 5 -104 31 -175 l30 -85 50 -10 c28 -6 58 -11 67 -12 12 0 10 -3
-6 -10 -13 -5 -27 -7 -32 -4 -4 3 -30 -18 -56 -46 -56 -58 -106 -92 -64 -43
13 16 38 43 53 61 29 31 29 53 2 53 -8 0 -37 -28 -66 -62 -45 -54 -49 -63 -33
-68 44 -16 -94 -20 -145 -4 -29 8 -55 14 -57 12 -2 -2 36 -43 85 -92 l88 -87
-25 -82 c-22 -71 -26 -101 -26 -232 -1 -130 2 -160 22 -225 47 -149 121 -269
230 -373 55 -52 63 -56 87 -47 32 12 35 12 35 2 0 -5 -25 -16 -55 -26 -30 -9
-57 -21 -60 -26 -8 -12 125 -98 203 -131 90 -37 252 -69 354 -69 145 1 347 59
458 133 252 169 405 436 417 732 6 134 -2 181 -35 203 -23 15 -23 15 -15 -29
14 -77 7 -259 -12 -334 -41 -160 -122 -302 -237 -417 -60 -60 -72 -68 -105
-68 l-38 1 34 15 c51 22 170 151 220 239 96 166 134 339 113 508 -15 117 -15
117 -57 145 l-35 22 0 -30 c0 -17 5 -62 11 -100 17 -112 13 -116 -51 -60 -30
27 -52 52 -48 55 3 3 22 -8 42 -26 20 -17 38 -30 40 -28 2 2 -4 51 -14 109 -9
58 -15 107 -13 109 2 3 37 -10 78 -29 42 -18 78 -31 80 -28 10 9 -55 181 -89
237 -20 32 -36 63 -36 69 0 5 35 14 78 18 l77 9 -80 51 c-44 28 -100 61 -123
73 -24 12 -41 25 -37 29 3 4 39 14 78 23 l72 16 -85 43 c-105 53 -237 104
-312 121 -32 6 -58 14 -58 17 0 2 18 24 40 49 22 25 40 49 40 52 0 9 -171 -7
-255 -24 -38 -8 -103 -31 -144 -50 -40 -20 -76 -34 -77 -32 -4 4 29 130 41
160 11 25 -3 20 -65 -24z m546 -404 c26 -11 34 -19 30 -32 -3 -10 -13 -49 -21
-87 -14 -59 -14 -71 -2 -77 7 -5 25 -18 38 -29 l24 -21 -25 7 c-55 14 -90 34
-90 49 0 9 9 53 21 97 11 44 19 81 17 83 -2 1 -12 7 -23 13 -29 16 -10 15 31
-3z m-481 -517 c107 -144 195 -258 196 -253 0 6 0 31 -1 56 -1 26 3 50 9 54 7
4 11 -12 11 -47 0 -56 23 -114 52 -132 27 -16 71 5 91 44 14 27 17 51 14 103
-4 57 -2 67 10 63 8 -3 18 -6 22 -6 4 0 18 -9 31 -20 l24 -20 29 27 29 28 -6
-46 c-12 -79 -53 -252 -75 -309 -18 -49 -29 -61 -83 -97 -95 -61 -195 -108
-276 -129 l-72 -18 -98 48 c-144 71 -238 132 -261 170 -39 63 -98 339 -83 391
l8 30 14 -35 14 -35 3 30 c9 68 24 105 42 105 9 0 59 -20 111 -45 51 -25 95
-43 98 -40 3 3 16 -2 30 -11 29 -19 36 -14 27 24 -4 22 -14 32 -33 37 -15 3
-69 26 -120 51 l-94 44 23 37 c52 87 106 163 115 163 2 0 92 -118 199 -262z
m264 135 c45 -48 81 -91 81 -96 0 -10 -123 -67 -144 -67 -11 0 -16 23 -20 98
-4 53 -9 109 -11 125 -3 15 0 27 4 27 5 0 46 -39 90 -87z m165 10 l36 -57 -26
-14 c-14 -7 -28 -12 -30 -10 -5 5 -24 105 -24 124 0 23 7 16 44 -43z m40 -185
c-4 -35 -10 -72 -15 -83 -7 -19 -8 -19 -8 2 -1 17 -9 23 -36 28 -19 3 -50 7
-69 10 -32 5 -89 -4 -128 -20 -12 -5 -18 -3 -18 7 0 7 8 14 18 15 9 0 69 23
132 52 63 28 119 51 123 51 4 0 5 -28 1 -62z m-993 -77 c29 -23 21 -35 -14
-22 -17 7 -28 7 -32 1 -4 -6 -2 -10 3 -10 15 0 53 -41 47 -51 -3 -5 -1 -17 4
-26 6 -10 11 -12 11 -5 0 21 16 13 28 -14 7 -14 16 -23 21 -20 7 5 41 -81 41
-104 0 -4 -12 -12 -26 -19 -21 -9 -30 -8 -53 8 -45 32 -121 119 -121 139 0 18
28 120 37 135 7 12 30 8 54 -12z m1170 -23 c32 -116 35 -104 -39 -180 -52 -55
-71 -68 -92 -66 -23 3 -25 6 -22 46 3 50 59 133 74 110 5 -8 8 -1 8 19 0 22 8
37 28 52 28 21 15 29 -19 11 -26 -15 -25 4 3 30 32 30 46 25 59 -22z m-700
-577 l86 -52 81 56 82 56 0 -58 c0 -56 1 -59 30 -70 17 -6 30 -16 30 -21 0
-19 -102 -102 -138 -112 -91 -25 -184 -5 -266 58 -76 57 -85 82 -32 86 25 1
26 4 26 59 0 32 3 56 8 54 4 -2 46 -28 93 -56z m-213 -56 c-3 -30 -7 -57 -9
-59 -2 -2 -21 -7 -41 -11 -35 -7 -38 -5 -63 35 -41 66 -41 67 12 78 26 5 61
10 77 11 l28 1 -4 -55z m654 24 c29 -6 57 -14 61 -19 9 -8 -22 -80 -34 -80 -4
0 -28 9 -53 20 -32 13 -46 25 -46 39 0 11 -3 26 -6 35 -7 19 6 20 78 5z"/>
<path d="M561 947 c-35 -7 -41 -12 -41 -34 0 -25 1 -25 18 -10 10 10 26 17 35
17 14 0 17 -11 17 -69 0 -54 5 -75 23 -102 28 -41 67 -49 96 -20 25 25 44 93
39 138 -4 35 1 40 20 21 9 -9 12 -9 12 3 0 9 -9 24 -21 35 -25 22 -133 34
-198 21z m77 -34 c-5 -25 -28 -28 -28 -4 0 12 6 21 16 21 9 0 14 -7 12 -17z"/>
<path d="M932 670 c0 -14 2 -19 5 -12 2 6 2 18 0 25 -3 6 -5 1 -5 -13z"/>
<path d="M913 513 c15 -2 37 -2 50 0 12 2 0 4 -28 4 -27 0 -38 -2 -22 -4z"/>
<path d="M330 812 c0 -22 62 -91 83 -92 17 0 -33 77 -57 88 -14 6 -26 8 -26 4z"/>
<path d="M1498 799 c-16 -11 -28 -27 -28 -34 0 -8 -7 -21 -16 -29 -9 -10 -11
-16 -4 -16 18 0 80 66 80 84 0 20 1 20 -32 -5z"/>
<path d="M96 1192 c-53 -159 -62 -358 -22 -516 41 -159 119 -297 235 -413 56
-57 58 -58 81 -43 12 8 2 23 -56 82 -78 80 -116 132 -162 225 -90 178 -107
439 -41 631 14 41 16 58 8 69 -19 22 -27 15 -43 -35z"/>
</g>
</svg>
