<?xml version="1.0" standalone="no"?>
<!DOCTYPE svg PUBLIC "-//W3C//DTD SVG 20010904//EN"
 "http://www.w3.org/TR/2001/REC-SVG-20010904/DTD/svg10.dtd">
<svg version="1.0" xmlns="http://www.w3.org/2000/svg"
 width="500.000000pt" height="500.000000pt" viewBox="0 0 500.000000 500.000000"
 preserveAspectRatio="xMidYMid meet">

<g transform="translate(0.000000,500.000000) scale(0.100000,-0.100000)"
fill="#000000" stroke="none">
<path d="M2210 3487 c0 -5 11 -25 25 -45 l25 -37 -52 -3 c-75 -5 -107 3 -174
44 l-59 35 39 -40 40 -41 -55 -23 c-61 -27 -142 -47 -197 -47 l-37 -1 50 -25
c29 -15 94 -69 152 -127 l102 -101 -25 63 c-31 77 -25 97 38 138 30 18 60 28
99 31 l56 4 12 -63 c38 -192 174 -334 343 -359 44 -6 47 -8 18 -9 -19 -1 -84
-6 -145 -11 -107 -8 -111 -8 -155 17 l-45 26 28 -30 c19 -20 25 -35 21 -48 -6
-14 -3 -16 12 -12 51 15 107 19 113 8 5 -8 19 -7 50 4 24 8 97 23 162 32 64
10 115 21 113 25 -3 4 2 8 11 8 28 0 92 38 120 72 37 44 75 126 75 163 1 61 9
75 44 68 17 -4 45 -22 64 -42 28 -31 33 -33 29 -13 -6 27 0 27 38 2 36 -25
117 -62 122 -56 2 2 -9 11 -24 21 -15 10 -44 35 -63 55 -30 32 -53 42 -155 73
-206 62 -451 113 -635 132 -62 7 -68 9 -122 63 -32 31 -58 53 -58 49z m250
-212 c110 -9 110 -9 110 -64 0 -82 39 -161 80 -161 38 0 80 79 80 150 l0 38
79 -18 c43 -9 83 -20 88 -23 16 -10 -3 -94 -32 -143 -14 -23 -42 -53 -62 -66
-34 -20 -50 -23 -143 -23 -97 0 -109 2 -158 29 -92 52 -161 150 -178 254 l-7
43 34 -5 c19 -3 68 -8 109 -11z m219 -31 c34 -6 39 -21 31 -81 -8 -52 -34 -93
-60 -93 -38 0 -71 86 -62 163 4 30 -3 30 91 11z"/>
<path d="M2838 2893 c7 -3 16 -2 19 1 4 3 -2 6 -13 5 -11 0 -14 -3 -6 -6z"/>
<path d="M1526 2541 l-67 -70 3 -158 3 -158 40 0 40 0 3 68 3 67 119 0 120 0
0 -71 0 -70 38 3 37 3 3 228 2 227 -138 0 -139 0 -67 -69z m262 -88 l-3 -68
-115 0 c-140 0 -149 10 -74 86 l48 49 74 0 73 0 -3 -67z"/>
<path d="M1942 2383 l3 -228 40 0 40 0 3 148 c1 84 7 147 12 145 5 -2 59 -70
120 -151 111 -148 111 -148 148 -145 l37 3 3 228 2 227 -40 0 -40 0 0 -145 c0
-80 -4 -145 -9 -145 -5 0 -58 65 -117 145 l-108 145 -48 0 -48 0 2 -227z"/>
<path d="M2422 2383 l3 -228 40 0 40 0 3 228 2 227 -45 0 -45 0 2 -227z"/>
<path d="M2582 2383 l3 -228 40 0 40 0 3 148 c1 81 6 147 10 147 4 -1 31 -37
61 -80 52 -76 56 -80 92 -80 35 0 40 4 96 83 l58 82 5 -150 5 -150 40 0 40 0
3 228 2 227 -43 0 -44 0 -77 -105 c-43 -58 -81 -105 -86 -105 -5 0 -41 47 -82
105 l-73 104 -48 1 -47 0 2 -227z"/>
<path d="M3152 2383 l3 -228 190 0 190 0 3 42 3 42 -148 3 -148 3 -3 42 -3 42
133 3 133 3 3 42 3 42 -133 3 -133 3 -3 47 -3 47 148 3 148 3 3 43 3 42 -196
0 -195 0 2 -227z"/>
<path d="M2912 1906 c-26 -57 -36 -62 -77 -36 -44 27 -45 15 -2 -22 l32 -28
-62 -60 c-35 -33 -63 -62 -63 -65 0 -13 42 19 90 67 l51 51 29 -28 c21 -20 30
-24 30 -14 0 9 -11 26 -24 38 l-25 23 30 53 c31 56 34 65 19 65 -5 0 -18 -20
-28 -44z"/>
<path d="M2010 1930 c0 -6 47 -10 120 -10 66 0 120 -4 120 -8 0 -5 -13 -21
-30 -37 -33 -31 -39 -48 -15 -38 20 7 76 88 68 97 -11 10 -263 7 -263 -4z"/>
<path d="M2410 1900 c0 -6 37 -10 90 -10 53 0 90 4 90 10 0 6 -37 10 -90 10
-53 0 -90 -4 -90 -10z"/>
<path d="M2130 1857 c0 -52 -14 -90 -47 -124 -18 -20 -32 -38 -30 -40 8 -7 58
39 71 65 17 34 27 110 15 118 -5 3 -9 -6 -9 -19z"/>
<path d="M2370 1750 c0 -6 52 -10 136 -10 87 0 133 4 129 10 -4 6 -60 10 -136
10 -79 0 -129 -4 -129 -10z"/>
</g>
</svg>
