<?xml version="1.0" standalone="no"?>
<!DOCTYPE svg PUBLIC "-//W3C//DTD SVG 20010904//EN"
 "http://www.w3.org/TR/2001/REC-SVG-20010904/DTD/svg10.dtd">
<svg version="1.0" xmlns="http://www.w3.org/2000/svg"
 width="200.000000pt" height="200.000000pt" viewBox="0 0 200.000000 200.000000"
 preserveAspectRatio="xMidYMid meet">

<g transform="translate(0.000000,200.000000) scale(0.100000,-0.100000)"
fill="#000000" stroke="none">
<path d="M898 1656 c-58 -16 -119 -55 -151 -98 -43 -59 -249 -437 -264 -485
-27 -90 -16 -123 135 -392 117 -209 143 -249 180 -275 73 -52 123 -64 265 -65
70 -1 127 1 127 3 0 3 -59 107 -132 233 -182 315 -187 324 -197 379 -18 97 -5
133 165 427 86 149 159 275 161 280 7 12 -239 7 -289 -7z"/>
<path d="M1192 1458 c-43 -79 -84 -153 -91 -165 -10 -19 -5 -35 31 -108 l43
-85 164 2 165 3 15 26 c14 25 10 34 -108 248 -68 121 -127 221 -131 221 -4 0
-44 -64 -88 -142z"/>
<path d="M1133 835 l-43 -74 91 -173 c50 -95 94 -176 98 -180 7 -8 238 403
248 440 2 11 0 29 -6 41 -11 20 -19 21 -179 21 l-167 -1 -42 -74z"/>
</g>
</svg>
