<?xml version="1.0" standalone="no"?>
<!DOCTYPE svg PUBLIC "-//W3C//DTD SVG 20010904//EN"
 "http://www.w3.org/TR/2001/REC-SVG-20010904/DTD/svg10.dtd">
<svg version="1.0" xmlns="http://www.w3.org/2000/svg"
 width="225.000000pt" height="225.000000pt" viewBox="0 0 225.000000 225.000000"
 preserveAspectRatio="xMidYMid meet">

<g transform="translate(0.000000,225.000000) scale(0.100000,-0.100000)"
fill="#000000" stroke="none">
<path d="M0 1125 l0 -1125 1125 0 1125 0 0 1125 0 1125 -1125 0 -1125 0 0
-1125z m1183 592 c27 -21 45 -27 65 -23 89 16 102 17 102 4 0 -7 10 -34 22
-60 16 -35 29 -48 50 -52 15 -3 41 -9 57 -12 28 -6 28 -6 24 -72 -4 -67 -4
-67 36 -109 l40 -43 -25 -45 c-14 -25 -30 -47 -34 -50 -5 -3 -6 -16 -1 -28 13
-34 31 -93 31 -100 0 -4 -5 -7 -11 -7 -7 0 -31 -12 -54 -26 -37 -24 -43 -33
-55 -85 l-12 -59 -42 -1 c-22 -1 -49 -1 -58 0 -10 1 -23 -10 -31 -26 -8 -15
-24 -36 -35 -46 -18 -17 -24 -17 -57 -6 -20 8 -40 19 -46 25 -7 8 -22 5 -57
-12 -26 -13 -51 -23 -57 -23 -5 0 -26 20 -45 44 -34 43 -36 44 -96 44 l-61 1
-14 61 c-16 64 -9 58 -118 116 -2 1 6 29 17 63 10 33 16 63 11 65 -4 3 -19 26
-33 51 l-25 45 42 45 c43 46 47 64 31 147 -4 21 -2 27 13 27 10 0 36 6 58 14
31 10 45 23 62 57 12 24 25 52 28 63 4 13 9 15 18 9 6 -6 34 -13 60 -17 43 -5
53 -2 85 22 20 15 41 33 46 41 8 12 10 12 20 0 6 -8 28 -27 49 -42z m-675
-968 l8 -20 18 20 c11 12 28 21 39 21 20 0 20 -1 -3 -25 l-23 -25 21 -23 c12
-13 22 -26 22 -30 0 -14 -28 -6 -45 13 -23 25 -31 25 -38 -1 -10 -37 -27 -10
-27 42 0 50 15 65 28 28z m132 -25 c3 -26 10 -39 20 -39 10 0 17 13 20 39 8
60 32 60 28 0 -3 -43 -6 -50 -31 -58 -42 -15 -61 2 -65 59 -4 59 20 59 28 -1z
m151 11 l13 -36 19 36 c27 54 52 44 52 -19 0 -61 -24 -79 -26 -19 l-1 38 -15
-37 c-19 -46 -31 -48 -46 -8 -14 37 -23 38 -22 3 0 -14 -6 -28 -12 -30 -10 -3
-13 11 -13 51 0 49 3 56 19 56 13 0 24 -11 32 -35z m194 -7 c9 -24 19 -49 22
-55 3 -7 -2 -13 -11 -13 -9 0 -16 5 -16 10 0 14 -58 12 -62 -2 -2 -6 -9 -8
-16 -4 -8 5 -7 17 5 44 35 77 53 81 78 20z m124 32 c13 -6 18 -22 19 -55 0
-46 -15 -62 -25 -25 -8 28 -53 28 -53 -1 0 -12 -5 -19 -12 -17 -11 4 -20 83
-11 101 6 10 61 9 82 -3z m128 -40 c27 -54 27 -60 8 -60 -8 0 -15 4 -15 9 0
16 -34 18 -52 3 -30 -25 -37 -4 -15 48 26 62 44 62 74 0z m139 36 c26 -20 10
-32 -22 -17 -20 9 -30 9 -40 0 -30 -25 -1 -70 33 -50 10 6 12 11 6 11 -25 0
-13 20 12 20 21 0 25 -5 25 -28 0 -26 -3 -27 -43 -27 -51 0 -77 18 -77 51 0
44 66 69 106 40z m66 -28 c2 -35 7 -43 23 -43 16 0 21 8 23 43 4 54 26 52 30
-3 4 -43 -15 -65 -54 -65 -32 0 -54 26 -54 64 0 61 28 64 32 4z m187 32 c22
-11 27 -100 6 -100 -7 0 -15 9 -18 20 -7 28 -47 27 -47 -1 0 -12 -5 -19 -12
-17 -14 5 -23 70 -14 94 6 16 58 19 85 4z m71 -36 c3 -26 10 -39 20 -39 10 0
17 13 20 39 7 57 30 59 30 4 0 -50 -13 -68 -50 -68 -37 0 -50 18 -50 68 0 55
23 53 30 -4z m-1026 -119 c1 -19 -2 -35 -6 -35 -5 0 -8 19 -8 42 0 49 13 44
14 -7z m393 25 c-1 -11 -5 -20 -9 -20 -4 0 -8 -10 -9 -22 -1 -19 -2 -18 -10 6
-5 20 -4 34 3 43 15 19 27 16 25 -7z m-417 -25 c0 -19 -4 -35 -10 -35 -5 0
-10 16 -10 35 0 19 5 35 10 35 6 0 10 -16 10 -35z m491 7 c-15 -5 -14 -29 2
-35 7 -4 6 -6 -4 -6 -11 -1 -19 9 -22 26 -7 36 1 47 20 31 10 -8 11 -14 4 -16z
m179 17 c0 -5 5 -7 10 -4 6 4 17 1 25 -5 17 -14 20 -50 5 -50 -5 0 -10 9 -10
20 0 11 -7 20 -15 20 -8 0 -15 -9 -15 -20 0 -35 -16 -21 -17 15 -1 19 3 35 8
35 5 0 9 -5 9 -11z m217 -41 c-2 -13 -4 -5 -4 17 -1 22 1 32 4 23 2 -10 2 -28
0 -40z m-1013 36 c22 -9 20 -21 -4 -20 -10 1 -19 -3 -19 -9 0 -5 9 -9 20 -8
10 2 19 -2 19 -8 0 -6 -12 -9 -27 -7 -31 3 -44 35 -21 49 16 11 13 10 32 3z
m86 -9 c18 -21 5 -45 -25 -45 -30 0 -43 24 -25 45 16 19 34 19 50 0z m128 6
c21 -13 10 -46 -17 -49 -29 -4 -43 15 -30 40 11 20 26 23 47 9z m90 -31 c-3
-29 -7 -35 -29 -38 -22 -3 -28 2 -33 23 -9 33 7 53 40 51 22 -1 25 -5 22 -36z
m71 26 c17 -20 2 -46 -25 -46 -29 0 -41 24 -24 45 16 19 34 19 49 1z m109 5
c23 -14 10 -46 -19 -49 -32 -4 -45 21 -23 43 18 17 24 18 42 6z m196 3 c9 -3
16 -17 16 -30 0 -20 -5 -24 -29 -24 -32 0 -43 16 -29 43 9 18 17 20 42 11z
m83 -11 c3 -7 -3 -9 -16 -6 -15 4 -21 1 -21 -12 0 -12 6 -16 20 -12 11 3 20 1
20 -4 0 -15 -50 -10 -56 6 -4 8 -1 22 6 31 15 17 41 15 47 -3z m151 -15 c2
-16 -1 -28 -7 -28 -6 0 -11 9 -11 20 0 27 -14 25 -28 -2 -10 -22 -11 -22 -11
7 -1 27 2 31 27 30 22 0 28 -5 30 -27z m72 17 c19 -23 4 -47 -27 -43 -31 3
-44 35 -21 49 19 13 34 11 48 -6z m98 6 c23 -14 10 -46 -19 -49 -30 -4 -46 22
-28 44 13 16 28 17 47 5z m83 -1 c6 0 9 -15 7 -32 -2 -27 -8 -34 -29 -36 -22
-3 -28 2 -33 23 -8 31 10 59 31 50 8 -3 19 -5 24 -5z m39 -18 c0 -13 5 -12 20
8 24 31 25 22 3 -25 -9 -19 -24 -35 -32 -35 -13 0 -13 2 -2 9 10 6 11 13 2 29
-14 26 -14 45 -1 37 6 -3 10 -14 10 -23z m-624 -92 c5 0 10 -7 12 -17 3 -15 1
-16 -7 -3 -10 13 -12 13 -21 0 -7 -12 -10 -8 -10 15 0 20 3 26 9 17 4 -8 12
-13 17 -12z m521 -17 c-3 -10 -5 -4 -5 12 0 17 2 24 5 18 2 -7 2 -21 0 -30z
m29 -11 c-11 -10 -15 4 -8 28 l7 25 3 -23 c2 -13 1 -26 -2 -30z m34 23 c0 -14
-4 -25 -10 -25 -11 0 -14 33 -3 43 11 11 13 8 13 -18z m-634 3 c4 -7 3 -8 -4
-4 -7 4 -12 3 -12 -3 0 -5 6 -12 13 -14 7 -3 6 -6 -5 -6 -23 -1 -34 19 -17 30
18 11 17 11 25 -3z m114 -8 c9 -18 8 -20 -15 -20 -27 0 -28 1 -19 24 8 22 21
20 34 -4z m38 0 c-7 -11 -15 -15 -17 -9 -2 6 3 15 10 20 20 12 21 11 7 -11z
m60 -3 c2 -12 -3 -17 -17 -17 -12 0 -21 6 -21 13 0 31 32 34 38 4z m48 11 c4
-7 3 -8 -4 -4 -7 4 -12 3 -12 -3 0 -5 6 -12 13 -14 7 -3 6 -6 -5 -6 -20 -1
-32 15 -23 29 8 13 22 13 31 -2z m41 -8 c-1 -11 -5 -20 -9 -20 -4 0 -8 9 -8
20 0 11 4 20 9 20 6 0 9 -9 8 -20z m59 9 c9 -16 -12 -33 -31 -25 -14 5 -15 9
-5 21 15 18 26 19 36 4z m30 -14 c-14 -14 -16 -14 -16 -2 0 9 6 17 13 20 19 7
21 -1 3 -18z m122 2 c2 -11 -3 -17 -16 -17 -18 0 -20 6 -13 38 3 11 27 -7 29
-21z m178 12 c9 -16 -12 -33 -31 -25 -14 5 -15 9 -5 21 15 18 26 19 36 4z
m-229 -21 c-3 -8 -6 -5 -6 6 -1 11 2 17 5 13 3 -3 4 -12 1 -19z"/>
<path d="M1107 1730 c-10 -8 -31 -27 -47 -41 -17 -15 -34 -23 -42 -19 -7 4
-32 10 -56 13 -41 5 -43 4 -62 -34 -11 -21 -20 -44 -20 -51 0 -7 -27 -21 -60
-32 -47 -14 -59 -22 -56 -35 3 -9 6 -34 7 -56 2 -34 -4 -46 -38 -83 l-41 -43
25 -45 c14 -24 28 -44 33 -44 4 0 2 -17 -5 -37 -23 -70 -26 -93 -13 -93 7 0
24 -9 38 -20 14 -11 33 -20 43 -20 11 0 17 -7 16 -17 -1 -10 2 -37 6 -59 7
-41 8 -42 55 -48 26 -4 54 -4 63 0 10 3 17 -2 21 -14 4 -10 19 -31 36 -47 l29
-28 51 25 c40 20 52 22 61 12 6 -7 26 -18 45 -24 41 -14 54 -6 79 46 9 19 21
32 26 28 5 -3 32 -3 59 1 48 7 49 7 56 48 4 23 7 47 5 54 -1 7 13 19 31 28 18
8 42 20 53 27 11 7 21 13 22 13 5 1 -21 92 -30 103 -7 9 -5 16 5 25 8 7 24 29
36 49 l20 36 -41 44 c-22 24 -40 46 -39 50 1 4 3 29 5 56 4 48 4 48 -37 65
-23 9 -49 17 -59 17 -9 0 -17 7 -17 15 0 9 -9 33 -20 55 -21 42 -20 42 -108
24 -21 -4 -77 28 -107 61 -7 8 -15 6 -28 -5z m156 -123 c68 -31 134 -95 167
-162 34 -68 36 -207 4 -275 -32 -68 -97 -135 -162 -167 -50 -24 -69 -28 -147
-28 -78 0 -97 4 -146 28 -111 54 -179 157 -187 282 -12 199 151 363 349 352
43 -3 86 -13 122 -30z"/>
<path d="M1033 1601 c-247 -85 -300 -393 -95 -548 156 -118 394 -56 474 123
77 176 -22 380 -208 429 -74 19 -107 19 -171 -4z m61 -43 c7 -5 4 -8 -6 -8
-12 0 -18 7 -17 23 0 15 2 17 6 7 3 -8 11 -18 17 -22z m36 22 c0 -5 -4 -10
-10 -10 -5 0 -10 5 -10 10 0 6 5 10 10 10 6 0 10 -4 10 -10z m38 3 c-10 -2
-18 -9 -18 -15 0 -5 6 -8 13 -5 7 3 22 -2 32 -10 19 -13 18 -14 -10 -7 -16 3
-34 10 -39 14 -12 12 2 30 22 29 15 -1 15 -2 0 -6z m47 -13 c-3 -5 -10 -10
-16 -10 -5 0 -9 5 -9 10 0 6 7 10 16 10 8 0 12 -4 9 -10z m-185 -10 c0 -5 -8
-7 -17 -4 -17 5 -17 4 -1 -7 15 -12 14 -14 -9 -26 -14 -7 -29 -10 -34 -7 -12
7 -12 34 1 34 5 0 7 -7 3 -16 -4 -12 -2 -15 8 -12 8 3 15 11 15 19 3 27 4 29
19 29 8 0 15 -4 15 -10z m24 -5 c3 -8 1 -15 -4 -15 -6 0 -10 7 -10 15 0 8 2
15 4 15 2 0 6 -7 10 -15z m225 -12 c5 -10 12 -17 15 -15 3 1 6 -1 6 -5 0 -5
-7 -7 -15 -7 -8 1 -22 2 -30 3 -19 1 -20 41 0 41 7 0 18 -8 24 -17z m-357 -82
c-16 -15 -26 -34 -24 -43 2 -10 -1 -18 -6 -18 -5 0 -9 -8 -8 -17 0 -10 -7 -19
-16 -21 -13 -3 -18 3 -17 20 1 17 3 18 6 6 2 -10 9 -18 14 -18 12 0 11 7 -1
30 -8 16 -8 18 5 14 8 -4 15 -1 15 5 0 6 -6 11 -12 12 -10 0 -10 2 -1 5 7 3
11 11 9 17 -1 7 -1 9 1 5 3 -4 10 -2 18 5 7 7 11 15 8 19 -2 4 4 5 14 1 16 -6
17 -5 3 13 -14 18 -14 18 3 5 16 -13 16 -15 -11 -40z m220 17 c-12 -12 -35 -1
-27 12 3 5 13 6 21 3 10 -4 12 -9 6 -15z m202 13 c3 -5 -1 -11 -9 -14 -9 -4
-12 -1 -8 9 6 16 10 17 17 5z m-334 -11 c0 -5 -2 -10 -4 -10 -3 0 -8 5 -11 10
-3 6 -1 10 4 10 6 0 11 -4 11 -10z m60 0 c0 -5 -2 -10 -4 -10 -3 0 -8 5 -11
10 -3 6 -1 10 4 10 6 0 11 -4 11 -10z m140 6 c0 -3 -4 -8 -10 -11 -5 -3 -10
-1 -10 4 0 6 5 11 10 11 6 0 10 -2 10 -4z m60 -6 c0 -5 -4 -10 -10 -10 -5 0
-10 5 -10 10 0 6 5 10 10 10 6 0 10 -4 10 -10z m100 -19 c0 -6 -5 -13 -10 -16
-7 -4 -7 -13 0 -26 6 -10 7 -19 3 -19 -4 0 -14 12 -20 27 -10 21 -10 28 0 35
16 10 27 10 27 -1z m-117 -36 l37 -7 0 -138 0 -138 -37 9 c-48 11 -194 11
-250 0 l-43 -8 0 137 0 137 53 10 c59 10 183 10 240 -2z m135 -10 c-3 -3 -9 2
-12 12 -6 14 -5 15 5 6 7 -7 10 -15 7 -18z m8 -35 c0 -11 -6 -20 -14 -20 -7 0
-10 5 -7 10 3 6 0 10 -7 11 -7 0 -4 4 7 9 11 5 20 9 20 9 1 1 1 -8 1 -19z
m-529 -60 c-4 -16 -2 -32 3 -35 13 -8 0 -35 -17 -35 -13 0 -13 3 -3 15 7 8 8
15 3 15 -5 0 -9 9 -9 19 0 11 4 17 8 15 4 -3 8 0 8 5 0 6 -4 11 -10 11 -5 0
-10 5 -10 10 0 6 7 10 16 10 13 0 15 -7 11 -30z m540 15 c0 -8 -7 -15 -14 -15
-8 0 -12 4 -9 9 4 5 0 12 -6 14 -7 3 -4 6 8 6 12 1 21 -5 21 -14z m6 -33 c3
-4 -6 -20 -19 -35 -16 -19 -24 -23 -24 -13 0 9 6 16 13 16 9 0 8 3 -2 9 -7 5
-10 14 -7 20 8 13 32 15 39 3z m-530 -82 c3 -10 0 -21 -7 -24 -6 -2 -1 -5 12
-5 26 -1 28 -14 5 -32 -16 -12 -17 -12 -5 2 10 14 9 17 -9 22 -14 4 -20 11
-16 21 4 9 2 16 -4 16 -6 0 -7 5 -4 10 10 16 22 12 28 -10z m516 -7 c0 -11 -3
-13 -6 -5 -2 6 -9 12 -14 12 -6 0 -7 -4 -4 -10 3 -5 1 -10 -4 -10 -6 0 -11 7
-11 15 0 8 9 15 20 15 13 0 20 -6 19 -17z m-19 -36 c0 -19 -10 -27 -26 -20
-21 8 -17 33 6 33 11 0 20 -6 20 -13z m-463 -49 c-15 -9 -19 -4 -11 16 5 14 9
15 15 5 5 -8 3 -17 -4 -21z m433 1 c0 -6 -4 -7 -10 -4 -5 3 -10 11 -10 16 0 6
5 7 10 4 6 -3 10 -11 10 -16z m-80 -21 c0 -4 -7 -8 -15 -8 -8 0 -15 4 -15 8 0
5 7 9 15 9 8 0 15 -4 15 -9z m-177 -5 c-7 -2 -19 -2 -25 0 -7 3 -2 5 12 5 14
0 19 -2 13 -5z m64 1 c-3 -3 -12 -4 -19 -1 -8 3 -5 6 6 6 11 1 17 -2 13 -5z
m-80 -76 c-3 -7 -5 -2 -5 12 0 14 2 19 5 13 2 -7 2 -19 0 -25z m43 12 c0 -11
-4 -20 -9 -20 -11 0 -22 26 -14 34 12 12 23 5 23 -14z m30 0 c0 -11 -4 -20
-10 -20 -5 0 -10 9 -10 20 0 11 5 20 10 20 6 0 10 -9 10 -20z m37 5 c0 -8 -6
-15 -13 -15 -8 0 -11 6 -8 15 4 8 9 15 13 15 4 0 8 -7 8 -15z m-147 1 c0 -3
-4 -8 -10 -11 -5 -3 -10 -1 -10 4 0 6 5 11 10 11 6 0 10 -2 10 -4z"/>
<path d="M1250 1541 c0 -5 7 -11 14 -14 10 -4 13 -1 9 9 -6 15 -23 19 -23 5z"/>
<path d="M998 1413 l-28 -4 0 -122 0 -122 155 0 155 0 0 121 0 122 -31 6 c-34
6 -206 6 -251 -1z m89 -109 c-3 -3 -12 -4 -19 -1 -8 3 -5 6 6 6 11 1 17 -2 13
-5z m100 -30 c-3 -3 -12 -4 -19 -1 -8 3 -5 6 6 6 11 1 17 -2 13 -5z m-110 -80
c-3 -3 -12 -4 -19 -1 -8 3 -5 6 6 6 11 1 17 -2 13 -5z"/>
<path d="M1385 1290 c4 -6 11 -8 16 -5 14 9 11 15 -7 15 -8 0 -12 -5 -9 -10z"/>
<path d="M1355 1170 c3 -5 8 -10 11 -10 2 0 4 5 4 10 0 6 -5 10 -11 10 -5 0
-7 -4 -4 -10z"/>
<path d="M940 721 c0 -6 5 -13 10 -16 6 -3 10 1 10 9 0 9 -4 16 -10 16 -5 0
-10 -4 -10 -9z"/>
<path d="M1055 730 c-4 -6 5 -10 19 -10 14 0 26 5 26 10 0 6 -9 10 -19 10 -11
0 -23 -4 -26 -10z"/>
<path d="M1190 721 c0 -6 5 -13 10 -16 6 -3 10 1 10 9 0 9 -4 16 -10 16 -5 0
-10 -4 -10 -9z"/>
<path d="M1570 730 c0 -5 9 -10 19 -10 11 0 23 5 26 10 4 6 -5 10 -19 10 -14
0 -26 -4 -26 -10z"/>
<path d="M570 595 c0 -8 7 -15 15 -15 8 0 15 7 15 15 0 8 -7 15 -15 15 -8 0
-15 -7 -15 -15z"/>
<path d="M708 603 c7 -3 16 -2 19 1 4 3 -2 6 -13 5 -11 0 -14 -3 -6 -6z"/>
<path d="M708 583 c7 -3 16 -2 19 1 4 3 -2 6 -13 5 -11 0 -14 -3 -6 -6z"/>
<path d="M782 599 c2 -6 8 -10 13 -10 5 0 11 4 13 10 2 6 -4 11 -13 11 -9 0
-15 -5 -13 -11z"/>
<path d="M788 563 c7 -3 16 -2 19 1 4 3 -2 6 -13 5 -11 0 -14 -3 -6 -6z"/>
<path d="M868 603 c7 -3 16 -2 19 1 4 3 -2 6 -13 5 -11 0 -14 -3 -6 -6z"/>
<path d="M868 583 c7 -3 16 -2 19 1 4 3 -2 6 -13 5 -11 0 -14 -3 -6 -6z"/>
<path d="M972 598 c5 -15 28 -18 29 -3 0 6 -7 12 -17 13 -10 3 -15 -1 -12 -10z"/>
<path d="M1178 583 c7 -3 16 -2 19 1 4 3 -2 6 -13 5 -11 0 -14 -3 -6 -6z"/>
<path d="M1470 595 c0 -8 7 -15 15 -15 8 0 15 7 15 15 0 8 -7 15 -15 15 -8 0
-15 -7 -15 -15z"/>
<path d="M1572 598 c5 -15 28 -18 29 -3 0 6 -7 12 -17 13 -10 3 -15 -1 -12
-10z"/>
<path d="M1652 599 c2 -6 8 -10 13 -10 5 0 11 4 13 10 2 6 -4 11 -13 11 -9 0
-15 -5 -13 -11z"/>
<path d="M1658 563 c7 -3 16 -2 19 1 4 3 -2 6 -13 5 -11 0 -14 -3 -6 -6z"/>
</g>
</svg>
