<?xml version="1.0" standalone="no"?>
<!DOCTYPE svg PUBLIC "-//W3C//DTD SVG 20010904//EN"
 "http://www.w3.org/TR/2001/REC-SVG-20010904/DTD/svg10.dtd">
<svg version="1.0" xmlns="http://www.w3.org/2000/svg"
 width="1300.000000pt" height="1300.000000pt" viewBox="0 0 1300.000000 1300.000000"
 preserveAspectRatio="xMidYMid meet">

<g transform="translate(0.000000,1300.000000) scale(0.100000,-0.100000)"
fill="#000000" stroke="none">
<path d="M3630 9954 c-192 -26 -449 -104 -442 -134 2 -10 0 -11 -10 -2 -26 21
-284 -126 -433 -248 -75 -61 -197 -186 -257 -260 -152 -190 -294 -482 -339
-700 -10 -46 -20 -63 -61 -102 -27 -27 -61 -73 -76 -105 l-27 -58 -3 -2510
c-2 -2489 -2 -2511 18 -2576 25 -84 87 -156 168 -196 l57 -28 2018 -3 c1624
-2 2017 0 2011 10 -6 10 -4 11 7 0 19 -17 509 -17 528 1 11 10 13 9 7 -1 -6
-10 184 -12 976 -10 l983 3 50 25 c73 36 128 91 161 163 l29 62 3 568 3 569
22 -15 c12 -7 112 -66 222 -129 235 -135 353 -203 530 -306 72 -41 186 -108
255 -147 69 -40 181 -105 250 -145 317 -183 486 -279 494 -279 5 1 12 -4 15
-9 11 -16 69 -42 96 -42 46 0 95 30 115 71 15 29 20 59 20 120 l0 82 -27 -24
-28 -24 27 31 28 30 0 2265 c0 2133 -1 2266 -18 2298 -25 49 -62 73 -112 73
-33 -1 -68 -16 -164 -70 -125 -72 -452 -261 -681 -394 -71 -41 -238 -137 -370
-213 -132 -76 -310 -179 -395 -228 -191 -111 -271 -157 -275 -157 -2 0 -5 255
-7 568 l-3 567 -27 55 c-25 53 -66 104 -107 132 -12 8 -26 45 -41 103 -75 303
-232 583 -452 807 -430 438 -1037 615 -1656 482 -32 -7 -32 -7 -15 -28 18 -21
18 -21 -3 -3 -27 22 -24 22 -135 -14 -256 -85 -460 -211 -663 -408 -171 -168
-254 -279 -353 -477 l-55 -110 -64 125 c-342 666 -1061 1044 -1794 945z m3130
-119 c13 -14 21 -25 18 -25 -2 0 -15 11 -28 25 -13 14 -21 25 -18 25 2 0 15
-11 28 -25z m80 -80 c13 -14 21 -25 18 -25 -2 0 -15 11 -28 25 -13 14 -21 25
-18 25 2 0 15 -11 28 -25z m-3555 -35 c10 -11 16 -20 13 -20 -3 0 -13 9 -23
20 -10 11 -16 20 -13 20 3 0 13 -9 23 -20z m869 -40 c526 -113 947 -481 1120
-979 20 -57 44 -145 55 -196 22 -106 39 -137 84 -156 44 -19 129 -17 161 4 39
26 54 56 70 141 62 321 241 633 484 841 200 173 432 288 693 347 147 32 434
33 586 0 602 -130 1057 -588 1178 -1186 21 -106 37 -134 90 -157 24 -11 48
-25 52 -32 4 -7 10 -321 13 -699 l5 -688 31 -31 c23 -23 44 -33 77 -36 40 -5
54 0 123 39 170 96 420 242 446 259 14 11 28 19 31 19 3 0 43 22 89 48 45 27
234 136 418 242 184 106 439 253 565 326 l230 134 3 -2102 c1 -1156 0 -2103
-2 -2106 -3 -2 -128 67 -278 154 -150 86 -358 207 -463 267 -104 60 -237 137
-295 170 -58 33 -168 96 -245 141 -600 352 -598 351 -673 312 -64 -33 -62 -6
-62 -744 0 -662 0 -670 -21 -696 l-20 -26 -1341 0 -1341 0 19 -22 19 -23 -26
23 -25 22 -1339 0 -1339 0 -25 -22 -26 -23 19 23 19 22 -515 0 c-504 0 -515 0
-536 20 -14 13 -22 33 -22 53 0 18 -6 39 -12 46 -10 11 -10 13 0 7 9 -6 12
234 12 1184 0 950 -3 1190 -12 1184 -10 -6 -10 -4 0 7 9 10 12 150 12 628 l0
616 -122 125 -123 125 122 -120 123 -120 0 618 c0 386 4 625 10 637 5 10 29
27 52 39 56 27 66 46 89 158 66 320 212 583 448 805 225 212 499 345 811 394
124 19 378 11 504 -16z m5176 -2395 c13 -14 21 -25 18 -25 -2 0 -15 11 -28 25
-13 14 -21 25 -18 25 2 0 15 -11 28 -25z m1670 -19 c0 -2 -8 -10 -17 -17 -16
-13 -17 -12 -4 4 13 16 21 21 21 13z m-1590 -61 c13 -14 21 -25 18 -25 -2 0
-15 11 -28 25 -13 14 -21 25 -18 25 2 0 15 -11 28 -25z m1540 12 c0 -2 -12
-14 -27 -28 l-28 -24 24 28 c23 25 31 32 31 24z m-80 -80 c0 -2 -12 -14 -27
-28 l-28 -24 24 28 c23 25 31 32 31 24z m-70 -71 c0 -2 -8 -10 -17 -17 -16
-13 -17 -12 -4 4 13 16 21 21 21 13z m-9 -1243 c13 -16 12 -17 -3 -4 -10 7
-18 15 -18 17 0 8 8 3 21 -13z m59 -58 c13 -14 21 -25 18 -25 -2 0 -15 11 -28
25 -13 14 -21 25 -18 25 2 0 15 -11 28 -25z m-8670 -28 c0 -2 -10 -12 -22 -23
l-23 -19 19 23 c18 21 26 27 26 19z m8750 -52 c13 -14 21 -25 18 -25 -2 0 -15
11 -28 25 -13 14 -21 25 -18 25 2 0 15 -11 28 -25z m-8830 -28 c0 -2 -10 -12
-22 -23 l-23 -19 19 23 c18 21 26 27 26 19z m8891 -34 c13 -16 12 -17 -3 -4
-10 7 -18 15 -18 17 0 8 8 3 21 -13z m-8941 -16 c0 -2 -12 -14 -27 -28 l-28
-24 24 28 c23 25 31 32 31 24z m-20 -1992 c13 -14 21 -25 18 -25 -2 0 -15 11
-28 25 -13 14 -21 25 -18 25 2 0 15 -11 28 -25z m55 -55 c10 -11 16 -20 13
-20 -3 0 -13 9 -23 20 -10 11 -16 20 -13 20 3 0 13 -9 23 -20z m8855 -13 c0
-2 -12 -14 -27 -28 l-28 -24 24 28 c23 25 31 32 31 24z m-8775 -67 c10 -11 16
-20 13 -20 -3 0 -13 9 -23 20 -10 11 -16 20 -13 20 3 0 13 -9 23 -20z m8695
-13 c0 -2 -12 -14 -27 -28 l-28 -24 24 28 c23 25 31 32 31 24z m-7600 -240 c0
-2 -12 -14 -27 -28 l-28 -24 24 28 c23 25 31 32 31 24z m2855 -37 c10 -11 16
-20 13 -20 -3 0 -13 9 -23 20 -10 11 -16 20 -13 20 3 0 13 -9 23 -20z m-3630
-30 c10 -11 16 -20 13 -20 -3 0 -13 9 -23 20 -10 11 -16 20 -13 20 3 0 13 -9
23 -20z m695 -13 c0 -2 -12 -14 -27 -28 l-28 -24 24 28 c23 25 31 32 31 24z
m3015 -37 c10 -11 16 -20 13 -20 -3 0 -13 9 -23 20 -10 11 -16 20 -13 20 3 0
13 -9 23 -20z m-3085 -34 c0 -2 -8 -10 -17 -17 -16 -13 -17 -12 -4 4 13 16 21
21 21 13z"/>
<path d="M3720 9395 c-8 -2 -49 -9 -90 -15 -253 -41 -516 -183 -704 -380 -104
-110 -173 -209 -237 -344 -85 -179 -120 -342 -120 -551 0 -244 54 -441 177
-652 108 -185 282 -356 474 -468 293 -170 693 -213 1024 -108 195 61 376 172
527 323 432 430 500 1109 163 1620 -187 285 -478 481 -824 556 -68 15 -351 29
-390 19z m-69 -42 c13 -16 12 -17 -3 -4 -10 7 -18 15 -18 17 0 8 8 3 21 -13z
m40 -40 c13 -16 12 -17 -3 -4 -10 7 -18 15 -18 17 0 8 8 3 21 -13z m74 -73
c10 -11 16 -20 13 -20 -3 0 -13 9 -23 20 -10 11 -16 20 -13 20 3 0 13 -9 23
-20z m266 -115 c218 -38 397 -131 555 -289 134 -135 238 -319 279 -496 23 -99
30 -261 15 -365 -58 -414 -337 -735 -750 -863 -78 -24 -100 -26 -265 -26 -141
-1 -193 3 -240 16 l-60 17 -35 -32 -35 -32 29 32 29 32 -29 12 c-181 74 -286
140 -396 250 -309 308 -390 772 -204 1165 144 303 423 520 744 578 103 19 260
19 363 1z m-571 -2108 c0 -2 -10 -12 -22 -23 l-23 -19 19 23 c18 21 26 27 26
19z"/>
<path d="M6970 9395 c-8 -2 -49 -9 -90 -15 -308 -49 -634 -251 -813 -503 -234
-328 -309 -713 -213 -1089 61 -239 211 -485 391 -642 172 -150 341 -238 564
-294 95 -24 125 -26 291 -26 142 -1 204 3 268 17 504 111 882 486 998 992 64
281 18 622 -118 875 -186 346 -503 583 -888 666 -68 14 -352 29 -390 19z m270
-40 c13 -14 21 -25 18 -25 -2 0 -15 11 -28 25 -13 14 -21 25 -18 25 2 0 15
-11 28 -25z m80 -80 c13 -14 21 -25 18 -25 -2 0 -15 11 -28 25 -13 14 -21 25
-18 25 2 0 15 -11 28 -25z m80 -80 c13 -14 21 -25 18 -25 -2 0 -15 11 -28 25
-13 14 -21 25 -18 25 2 0 15 -11 28 -25z m-119 -70 c364 -63 678 -327 795
-666 110 -321 72 -637 -111 -921 -56 -86 -195 -227 -280 -283 -153 -100 -328
-162 -495 -172 -52 -3 -101 -11 -109 -17 -11 -8 -13 -8 -7 2 5 9 -4 12 -37 12
-120 0 -325 62 -452 138 -546 324 -678 1043 -282 1537 233 291 612 434 978
370z"/>
<path d="M2781 6613 c-65 -34 -63 -45 11 -120 l67 -67 23 20 23 19 -19 -23
-20 -23 50 -52 c27 -29 -6 2 -73 67 -113 111 -122 118 -128 95 -3 -13 -4 -644
-3 -1401 l3 -1377 29 -30 c17 -17 46 -36 65 -41 49 -13 5444 -14 5490 0 104
29 131 161 47 225 l-33 25 -2671 0 -2672 0 -1 1293 c0 974 -3 1300 -12 1326
-24 68 -110 99 -176 64z m179 -96 c0 -2 -12 -14 -27 -28 l-28 -24 24 28 c23
25 31 32 31 24z m-110 -111 c0 -2 -8 -10 -17 -17 -16 -13 -17 -12 -4 4 13 16
21 21 21 13z m2631 -2583 c13 -16 12 -17 -3 -4 -10 7 -18 15 -18 17 0 8 8 3
21 -13z m-1661 -36 c0 -2 -12 -14 -27 -28 l-28 -24 24 28 c23 25 31 32 31 24z
m1735 -37 c10 -11 16 -20 13 -20 -3 0 -13 9 -23 20 -10 11 -16 20 -13 20 3 0
13 -9 23 -20z"/>
</g>
</svg>
